<?xml version="1.0" encoding="utf-8"?>
<!-- Generator: Grasshopper 1.0.0, Redback Plugin. SVG Version: 6.00 Build 0)  -->
<!DOCTYPE svg PUBLIC "-//W3C//DTD SVG 1.1//EN" "http://www.w3.org/Graphics/SVG/1.1/DTD/svg11.dtd">
<svg version="1.1" xmlns="http://www.w3.org/2000/svg" xmlns:xlink="http://www.w3.org/1999/xlink" x="0px" y="0px"
width="841.0mm" height="594.0mm" viewBox="0 0 841.0 594.0" xml:space="preserve">
<style type="text/css">
.Resi-Stroke{
stroke:black;
stroke-width: 0.1mm;
fill:none;
}

.Resi-Fill{
fill: rgb(204,108,120);
}

.Comm-Stroke{
stroke:black;
stroke-width: 0.1mm;
fill:none;
}

.Comm-Fill{
fill: rgb(130,215,255);
}
</style>
<polygon points="447.774607392,166.666298668 508.616137766,166.666298668 509.091651974,173.816877626 444.237871231,173.816877626" class="Comm-Stroke"/>
<polygon points="509.354252780,179.816877626 440.783198250,179.816877626 444.237871231,173.816877626 509.091651974,173.816877626" class="Comm-Stroke"/>
<polygon points="509.499812277,185.816877626 436.809431646,185.816877626 440.783198250,179.816877626 509.354252780,179.816877626" class="Comm-Stroke"/>
<polygon points="509.534669801,191.816877626 432.230082385,191.816877626 436.809431646,185.816877626 509.499812277,185.816877626" class="Comm-Stroke"/>
<polygon points="509.464632886,197.816877626 426.938323854,197.816877626 432.230082385,191.816877626 509.534669801,191.816877626" class="Comm-Stroke"/>
<polygon points="509.295040982,203.816877626 420.800560952,203.816877626 426.938323854,197.816877626 509.464632886,197.816877626" class="Comm-Stroke"/>
<polygon points="415.691166979,208.196151859 420.800560952,203.816877626 509.295040982,203.816877626 509.030820125,209.816877626 416.302242563,209.816877626" class="Comm-Stroke"/>
<polygon points="508.676530150,215.816877626 418.296454808,215.816877626 416.302242563,209.816877626 509.030820125,209.816877626" class="Comm-Stroke"/>
<polygon points="508.236405727,221.816877626 419.884437093,221.816877626 418.296454808,215.816877626 508.676530150,215.816877626" class="Comm-Stroke"/>
<polygon points="507.714392271,227.816877626 421.085749627,227.816877626 419.884437093,221.816877626 508.236405727,221.816877626" class="Comm-Stroke"/>
<polygon points="507.114177581,233.816877626 421.918106998,233.816877626 421.085749627,227.816877626 507.714392271,227.816877626" class="Comm-Stroke"/>
<polygon points="506.439219913,239.816877626 422.398339202,239.816877626 421.918106998,233.816877626 507.114177581,233.816877626" class="Comm-Stroke"/>
<polygon points="505.692773111,245.816877626 422.542267960,245.816877626 422.398339202,239.816877626 506.439219913,239.816877626" class="Comm-Stroke"/>
<polygon points="504.877909281,251.816877626 422.364781111,251.816877626 422.542267960,245.816877626 505.692773111,245.816877626" class="Comm-Stroke"/>
<polygon points="503.997539481,257.816877626 421.880476077,257.816877626 422.364781111,251.816877626 504.877909281,251.816877626" class="Comm-Stroke"/>
<polygon points="503.054567088,263.816877626 421.102307360,263.816877626 421.880476077,257.816877626 503.997539481,257.816877626" class="Comm-Stroke"/>
<polygon points="502.051844606,269.816877626 420.042104863,269.816877626 421.102307360,263.816877626 503.054567088,263.816877626" class="Comm-Stroke"/>
<polygon points="500.991869689,275.816877626 418.711535937,275.816877626 420.042104863,269.816877626 502.051844606,269.816877626" class="Comm-Stroke"/>
<polygon points="499.877002697,281.816877626 417.121714447,281.816877626 418.711535937,275.816877626 500.991869689,275.816877626" class="Comm-Stroke"/>
<polygon points="498.709476002,287.816877626 415.283274027,287.816877626 417.121714447,281.816877626 499.877002697,281.816877626" class="Comm-Stroke"/>
<polygon points="497.491402543,293.816877626 413.206438774,293.816877626 415.283274027,287.816877626 498.709476002,287.816877626" class="Comm-Stroke"/>
<polyline points="410.901092988,299.816877626 413.206438774,293.816877626 497.491402543,293.816877626 496.224783713,299.816877626 410.901092988,299.816877626" class="Comm-Stroke"/>
<polygon points="496.224783713,307.999827982 325.577402264,307.999827982 325.577402264,299.816877626 410.901092988,299.816877626 496.224783713,299.816877626" class="Comm-Stroke"/>
<polyline points="325.577402264,313.999827982 325.577402264,307.999827982 496.224783713,307.999827982 496.224783713,313.999827982 325.577402264,313.999827982" class="Comm-Stroke"/>
<polyline points="325.577402264,319.999827982 325.577402264,313.999827982 496.224783713,313.999827982 496.224783713,319.999827982 325.577402264,319.999827982" class="Comm-Stroke"/>
<polyline points="325.577402264,325.999827982 325.577402264,319.999827982 496.224783713,319.999827982 496.224783713,325.999827982 325.577402264,325.999827982" class="Comm-Stroke"/>
<polyline points="325.577402264,331.999827982 325.577402264,325.999827982 496.224783713,325.999827982 496.224783713,331.999827982 325.577402264,331.999827982" class="Comm-Stroke"/>
<polyline points="325.577402264,337.999827982 325.577402264,331.999827982 496.224783713,331.999827982 496.224783713,337.999827982 325.577402264,337.999827982" class="Comm-Stroke"/>
<polyline points="325.577402264,343.999827982 325.577402264,337.999827982 496.224783713,337.999827982 496.224783713,343.999827982 325.577402264,343.999827982" class="Comm-Stroke"/>
<polyline points="325.577402264,349.999827982 325.577402264,343.999827982 496.224783713,343.999827982 496.224783713,349.999827982 325.577402264,349.999827982" class="Comm-Stroke"/>
<polyline points="325.577402264,355.999827982 325.577402264,349.999827982 496.224783713,349.999827982 496.224783713,355.999827982 325.577402264,355.999827982" class="Comm-Stroke"/>
<polyline points="325.577402264,361.999827982 325.577402264,355.999827982 496.224783713,355.999827982 496.224783713,361.999827982 325.577402264,361.999827982" class="Comm-Stroke"/>
<polyline points="325.577402264,367.999827982 325.577402264,361.999827982 496.224783713,361.999827982 496.224783713,367.999827982 325.577402264,367.999827982" class="Comm-Stroke"/>
<polyline points="325.577402264,373.999827982 325.577402264,367.999827982 496.224783713,367.999827982 496.224783713,373.999827982 325.577402264,373.999827982" class="Comm-Stroke"/>
<polyline points="40.0,514.0 140.0,514.0 140.0,492.0 40.0,492.0 40.0,514.0" class="Comm-Stroke"/>
</svg>