<?xml version="1.0" encoding="utf-8"?>
<!-- Generator: Grasshopper 1.0.0, Redback Plugin. SVG Version: 6.00 Build 0)  -->
<!DOCTYPE svg PUBLIC "-//W3C//DTD SVG 1.1//EN" "http://www.w3.org/Graphics/SVG/1.1/DTD/svg11.dtd">
<svg version="1.1" xmlns="http://www.w3.org/2000/svg" xmlns:xlink="http://www.w3.org/1999/xlink" x="0px" y="0px"
width="841.0mm" height="594.0mm" viewBox="0 0 841.0 594.0" xml:space="preserve">
<style type="text/css">
.Resi-Stroke{
stroke:black;
stroke-width: 0.1mm;
fill:none;
}

.Resi-Fill{
fill: rgb(204,108,120);
}

.Comm-Stroke{
stroke:black;
stroke-width: 0.1mm;
fill:none;
}

.Comm-Fill{
fill: rgb(130,215,255);
}
</style>
<polyline points="619.499437692,248.967430681 619.499437692,240.967430681 777.531153510,240.967430681 777.531153510,248.967430681 619.499437692,248.967430681" class="Comm-Stroke"/>
<polygon points="619.499437692,240.967430681 619.499437692,232.967430681 777.531153510,232.967430681 777.531153510,240.967430681" class="Comm-Stroke"/>
<polygon points="777.531153510,224.615853503 777.531153510,232.967430681 619.499437692,232.967430681 619.499437692,224.615853503 628.597692484,224.615853503" class="Comm-Stroke"/>
<polyline points="811.097934704,222.616226637 811.097934704,232.967430681 891.097934704,232.967430681 891.097934704,222.616226637 811.097934704,222.616226637" class="Comm-Stroke"/>
<polygon points="891.097934704,240.967430681 891.097934704,232.967430681 811.097934704,232.967430681 811.097934704,240.967430681" class="Comm-Stroke"/>
<polygon points="891.097934704,248.967430681 891.097934704,240.967430681 811.097934704,240.967430681 811.097934704,248.967430681" class="Comm-Stroke"/>
<polygon points="811.097934704,196.265022594 811.097934704,206.616226637 891.097934704,206.616226637 891.097934704,196.265022594 872.272146877,196.265022594" class="Comm-Stroke"/>
<polyline points="891.097934704,214.616226637 891.097934704,206.616226637 811.097934704,206.616226637 811.097934704,214.616226637 891.097934704,214.616226637" class="Comm-Stroke"/>
<polygon points="891.097934704,222.616226637 891.097934704,214.616226637 811.097934704,214.616226637 811.097934704,222.616226637" class="Comm-Stroke"/>
<polygon points="40.0,514.0 140.0,514.0 140.0,492.0 40.0,492.0" class="Comm-Stroke"/>
</svg>