<?xml version="1.0" encoding="utf-8"?>
<!-- Generator: Grasshopper 1.0.0, Redback Plugin. SVG Version: 6.00 Build 0)  -->
<!DOCTYPE svg PUBLIC "-//W3C//DTD SVG 1.1//EN" "http://www.w3.org/Graphics/SVG/1.1/DTD/svg11.dtd">
<svg version="1.1" xmlns="http://www.w3.org/2000/svg" xmlns:xlink="http://www.w3.org/1999/xlink" x="0px" y="0px"
width="841.0mm" height="594.0mm" viewBox="0 0 841.0 594.0" xml:space="preserve">
<style type="text/css">
.Resi{
fill: blue;
}
.Comm{
fill: red;
}
</style>
<polygon points="540.543826459,89.6664706862 601.385356832,89.6664706862 601.860871040,96.8170496444 537.007090298,96.8170496444" class="Comm-Fill"/>
<polygon points="602.123471847,102.817049644 533.552417316,102.817049644 537.007090298,96.8170496444 601.860871040,96.8170496444" class="Comm-Fill"/>
<polygon points="602.269031344,108.817049644 529.578650713,108.817049644 533.552417316,102.817049644 602.123471847,102.817049644" class="Comm-Fill"/>
<polygon points="602.303888868,114.817049644 524.999301452,114.817049644 529.578650713,108.817049644 602.269031344,108.817049644" class="Comm-Fill"/>
<polygon points="602.233851952,120.817049644 519.707542921,120.817049644 524.999301452,114.817049644 602.303888868,114.817049644" class="Comm-Fill"/>
<polygon points="602.064260048,126.817049644 513.569780018,126.817049644 519.707542921,120.817049644 602.233851952,120.817049644" class="Comm-Fill"/>
<polygon points="508.460386045,131.196323877 513.569780018,126.817049644 602.064260048,126.817049644 601.800039192,132.817049644 509.071461630,132.817049644" class="Comm-Fill"/>
<polygon points="601.445749216,138.817049644 511.065673875,138.817049644 509.071461630,132.817049644 601.800039192,132.817049644" class="Comm-Fill"/>
<polygon points="601.005624793,144.817049644 512.653656159,144.817049644 511.065673875,138.817049644 601.445749216,138.817049644" class="Comm-Fill"/>
<polygon points="600.483611338,150.817049644 513.854968694,150.817049644 512.653656159,144.817049644 601.005624793,144.817049644" class="Comm-Fill"/>
<polygon points="599.883396647,156.817049644 514.687326065,156.817049644 513.854968694,150.817049644 600.483611338,150.817049644" class="Comm-Fill"/>
<polygon points="599.208438980,162.817049644 515.167558268,162.817049644 514.687326065,156.817049644 599.883396647,156.817049644" class="Comm-Fill"/>
<polygon points="598.461992178,168.817049644 515.311487027,168.817049644 515.167558268,162.817049644 599.208438980,162.817049644" class="Comm-Fill"/>
<polygon points="597.647128348,174.817049644 515.134000177,174.817049644 515.311487027,168.817049644 598.461992178,168.817049644" class="Comm-Fill"/>
<polygon points="596.766758548,180.817049644 514.649695143,180.817049644 515.134000177,174.817049644 597.647128348,174.817049644" class="Comm-Fill"/>
<polygon points="595.823786155,186.817049644 513.871526427,186.817049644 514.649695143,180.817049644 596.766758548,180.817049644" class="Comm-Fill"/>
<polygon points="594.821063673,192.817049644 512.811323930,192.817049644 513.871526427,186.817049644 595.823786155,186.817049644" class="Comm-Fill"/>
<polygon points="593.761088756,198.817049644 511.480755003,198.817049644 512.811323930,192.817049644 594.821063673,192.817049644" class="Comm-Fill"/>
<polygon points="592.646221764,204.817049644 509.890933514,204.817049644 511.480755003,198.817049644 593.761088756,198.817049644" class="Comm-Fill"/>
<polygon points="591.478695068,210.817049644 508.052493094,210.817049644 509.890933514,204.817049644 592.646221764,204.817049644" class="Comm-Fill"/>
<polygon points="590.260621610,216.817049644 505.975657840,216.817049644 508.052493094,210.817049644 591.478695068,210.817049644" class="Comm-Fill"/>
<polyline points="503.670312055,222.817049644 505.975657840,216.817049644 590.260621610,216.817049644 588.994002779,222.817049644 503.670312055,222.817049644" class="Comm-Fill"/>
<polygon points="588.994002779,231.0 418.346621331,231.0 418.346621331,222.817049644 503.670312055,222.817049644 588.994002779,222.817049644" class="Comm-Fill"/>
<polyline points="418.346621331,237.0 418.346621331,231.0 588.994002779,231.0 588.994002779,237.0 418.346621331,237.0" class="Comm-Fill"/>
<polyline points="418.346621331,243.0 418.346621331,237.0 588.994002779,237.0 588.994002779,243.0 418.346621331,243.0" class="Comm-Fill"/>
<polyline points="418.346621331,249.0 418.346621331,243.0 588.994002779,243.0 588.994002779,249.0 418.346621331,249.0" class="Comm-Fill"/>
<polyline points="418.346621331,255.0 418.346621331,249.0 588.994002779,249.0 588.994002779,255.0 418.346621331,255.0" class="Comm-Fill"/>
<polyline points="418.346621331,261.0 418.346621331,255.0 588.994002779,255.0 588.994002779,261.0 418.346621331,261.0" class="Comm-Fill"/>
<polyline points="418.346621331,267.0 418.346621331,261.0 588.994002779,261.0 588.994002779,267.0 418.346621331,267.0" class="Comm-Fill"/>
<polyline points="418.346621331,273.0 418.346621331,267.0 588.994002779,267.0 588.994002779,273.0 418.346621331,273.0" class="Comm-Fill"/>
<polyline points="418.346621331,279.0 418.346621331,273.0 588.994002779,273.0 588.994002779,279.0 418.346621331,279.0" class="Comm-Fill"/>
<polyline points="418.346621331,285.0 418.346621331,279.0 588.994002779,279.0 588.994002779,285.0 418.346621331,285.0" class="Comm-Fill"/>
<polyline points="418.346621331,291.0 418.346621331,285.0 588.994002779,285.0 588.994002779,291.0 418.346621331,291.0" class="Comm-Fill"/>
<polyline points="418.346621331,297.0 418.346621331,291.0 588.994002779,291.0 588.994002779,297.0 418.346621331,297.0" class="Comm-Fill"/>
</svg>