<?xml version="1.0" encoding="utf-8"?>
<!-- Generator: Grasshopper 1.0.0, Redback Plugin. SVG Version: 6.00 Build 0)  -->
<!DOCTYPE svg PUBLIC "-//W3C//DTD SVG 1.1//EN" "http://www.w3.org/Graphics/SVG/1.1/DTD/svg11.dtd">
<svg version="1.1" xmlns="http://www.w3.org/2000/svg" xmlns:xlink="http://www.w3.org/1999/xlink" x="0px" y="0px"
width="841.0mm" height="594.0mm" viewBox="0 0 841.0 594.0" xml:space="preserve">
<style type="text/css">
.Resi-Stroke{
stroke:black;
stroke-width: 0.2mm;
fill:none;
}

.Resi-Fill{
fill: rgb(204,108,120);
}

.Comm-Stroke{
stroke:black;
stroke-width: 0.2mm;
fill:none;
}

.Comm-Fill{
fill: rgb(130,215,255);
}
</style>
<polygon points="496.943290721,352.327287570 496.943290721,346.127287570 539.507226919,346.127287570 539.507226919,352.327287570" class="Resi-Stroke"/>
<polygon points="496.943290721,346.127287570 539.507226919,346.127287570 539.507226919,339.927287570 496.943290721,339.927287570" class="Resi-Stroke"/>
<polygon points="496.943290721,333.727287570 496.943290721,339.927287570 539.507226919,339.927287570 539.507226919,333.727287570" class="Resi-Stroke"/>
<polygon points="496.943290721,327.527287570 496.943290721,333.727287570 539.507226919,333.727287570 539.507226919,327.527287570" class="Resi-Stroke"/>
<polyline points="496.943290721,321.327287570 496.943290721,327.527287570 539.507226919,327.527287570 539.507226919,321.327287570 496.943290721,321.327287570" class="Resi-Stroke"/>
<polygon points="496.943290721,321.327287570 539.507226919,321.327287570 539.507226919,315.127287570 496.943290721,315.127287570" class="Resi-Stroke"/>
<polygon points="496.943290721,315.127287570 539.507226919,315.127287570 539.507226919,308.927287570 496.943290721,308.927287570" class="Resi-Stroke"/>
<polygon points="496.943290721,308.927287570 539.507226919,308.927287570 539.507226919,302.727287570 496.943290721,302.727287570" class="Resi-Stroke"/>
<polyline points="496.943290721,302.727287570 539.507226919,302.727287570 539.507226919,296.527287570 496.943290721,296.527287570 496.943290721,302.727287570" class="Resi-Stroke"/>
<polygon points="496.943290721,290.327287570 496.943290721,296.527287570 539.507226919,296.527287570 539.507226919,290.327287570" class="Resi-Stroke"/>
<polyline points="496.943290721,284.127287570 496.943290721,290.327287570 539.507226919,290.327287570 539.507226919,284.127287570 496.943290721,284.127287570" class="Resi-Stroke"/>
<polygon points="496.943290721,284.127287570 539.507226919,284.127287570 539.507226919,277.927287570 496.943290721,277.927287570" class="Resi-Stroke"/>
<polygon points="496.943290721,271.727287570 496.943290721,277.927287570 539.507226919,277.927287570 539.507226919,271.727287570" class="Resi-Stroke"/>
<polygon points="496.943290721,271.727287570 539.507226919,271.727287570 539.507226919,265.527287570 496.943290721,265.527287570" class="Resi-Stroke"/>
<polyline points="496.943290721,265.527287570 539.507226919,265.527287570 539.507226919,259.327287570 496.943290721,259.327287570 496.943290721,265.527287570" class="Resi-Stroke"/>
<polygon points="496.943290721,259.327287570 539.507226919,259.327287570 539.507226919,253.127287570 496.943290721,253.127287570" class="Resi-Stroke"/>
<polygon points="496.943290721,246.927287570 496.943290721,253.127287570 539.507226919,253.127287570 539.507226919,246.927287570" class="Resi-Stroke"/>
<polyline points="496.943290721,240.727287570 496.943290721,246.927287570 539.507226919,246.927287570 539.507226919,240.727287570 496.943290721,240.727287570" class="Resi-Stroke"/>
<polygon points="496.943290721,240.727287570 539.507226919,240.727287570 539.507226919,234.527287570 496.943290721,234.527287570" class="Resi-Stroke"/>
<polygon points="539.507226919,234.527287570 539.507226919,228.327287570 496.943290721,228.327287570 496.943290721,234.527287570" class="Resi-Stroke"/>
<polyline points="496.943290721,228.327287570 539.507226919,228.327287570 539.507226919,222.127287570 496.943290721,222.127287570 496.943290721,228.327287570" class="Resi-Stroke"/>
<polyline points="496.943290721,215.927287570 496.943290721,222.127287570 539.507226919,222.127287570 539.507226919,215.927287570 496.943290721,215.927287570" class="Resi-Stroke"/>
<polyline points="496.943290721,215.927287570 539.507226919,215.927287570 539.507226919,209.727287570 496.943290721,209.727287570 496.943290721,215.927287570" class="Resi-Stroke"/>
<polygon points="496.943290721,203.527287570 496.943290721,209.727287570 539.507226919,209.727287570 539.507226919,203.527287570" class="Resi-Stroke"/>
<polygon points="496.943290721,197.327287570 496.943290721,203.527287570 539.507226919,203.527287570 539.507226919,197.327287570" class="Resi-Stroke"/>
<polygon points="496.943290721,197.327287570 539.507226919,197.327287570 539.507226919,191.127287570 496.943290721,191.127287570" class="Resi-Stroke"/>
<polyline points="496.943290721,191.127287570 539.507226919,191.127287570 539.507226919,184.927287570 496.943290721,184.927287570 496.943290721,191.127287570" class="Resi-Stroke"/>
<polygon points="539.507226919,178.727287570 496.943290721,178.727287570 496.943290721,184.927287570 539.507226919,184.927287570" class="Resi-Stroke"/>
<polygon points="539.507226919,178.727287570 539.507226919,172.527287570 496.943290721,172.527287570 496.943290721,178.727287570" class="Resi-Stroke"/>
<polygon points="539.507226919,166.327287570 496.943290721,166.327287570 496.943290721,172.527287570 539.507226919,172.527287570" class="Resi-Stroke"/>
<polygon points="496.943290721,160.127287570 496.943290721,166.327287570 539.507226919,166.327287570 539.507226919,160.127287570" class="Resi-Stroke"/>
<polygon points="496.943290721,160.127287570 539.507226919,160.127287570 539.507226919,153.927287570 496.943290721,153.927287570" class="Resi-Stroke"/>
<polygon points="539.507226919,147.727287570 496.943290721,147.727287570 496.943290721,153.927287570 539.507226919,153.927287570" class="Resi-Stroke"/>
<polyline points="539.507226919,147.727287570 539.507226919,141.527287570 496.943290721,141.527287570 496.943290721,147.727287570 539.507226919,147.727287570" class="Resi-Stroke"/>
<polygon points="539.507226919,135.327287570 496.943290721,135.327287570 496.943290721,141.527287570 539.507226919,141.527287570" class="Resi-Stroke"/>
<polygon points="539.507226919,135.327287570 539.507226919,129.127287570 496.943290721,129.127287570 496.943290721,135.327287570" class="Resi-Stroke"/>
<polygon points="539.507226919,122.927287570 496.943290721,122.927287570 496.943290721,129.127287570 539.507226919,129.127287570" class="Resi-Stroke"/>
<polygon points="539.507226919,122.927287570 539.507226919,116.727287570 496.943290721,116.727287570 496.943290721,122.927287570" class="Resi-Stroke"/>
<polygon points="539.507226919,116.727287570 539.507226919,110.527287570 496.943290721,110.527287570 496.943290721,116.727287570" class="Resi-Stroke"/>
<polygon points="539.507226919,104.327287570 496.943290721,104.327287570 496.943290721,110.527287570 539.507226919,110.527287570" class="Resi-Stroke"/>
<polyline points="539.507226919,104.327287570 539.507226919,92.5242168284 496.943290721,92.5242168284 496.943290721,104.327287570 539.507226919,104.327287570" class="Resi-Stroke"/>
<polyline points="395.282023422,380.678118479 293.216966424,380.678118479 293.216966424,374.478118479 395.282023422,374.478118479 395.282023422,380.678118479" class="Resi-Stroke"/>
<polyline points="293.216966424,368.278118479 395.282023422,368.278118479 395.282023422,374.478118479 293.216966424,374.478118479 293.216966424,368.278118479" class="Resi-Stroke"/>
<polygon points="293.216966424,368.278118479 293.216966424,362.078118479 395.282023422,362.078118479 395.282023422,368.278118479" class="Resi-Stroke"/>
<polygon points="293.216966424,362.078118479 293.216966424,355.878118479 395.282023422,355.878118479 395.282023422,362.078118479" class="Resi-Stroke"/>
<polygon points="293.216966424,355.878118479 293.216966424,349.678118479 395.282023422,349.678118479 395.282023422,355.878118479" class="Resi-Stroke"/>
<polyline points="395.282023422,343.478118479 395.282023422,349.678118479 293.216966424,349.678118479 293.216966424,343.478118479 395.282023422,343.478118479" class="Resi-Stroke"/>
<polygon points="395.282023422,343.478118479 293.216966424,343.478118479 293.216966424,337.278118479 395.282023422,337.278118479" class="Resi-Stroke"/>
<polygon points="293.216966424,331.078118479 395.282023422,331.078118479 395.282023422,337.278118479 293.216966424,337.278118479" class="Resi-Stroke"/>
<polyline points="293.216966424,331.078118479 293.216966424,324.878118479 395.282023422,324.878118479 395.282023422,331.078118479 293.216966424,331.078118479" class="Resi-Stroke"/>
<polygon points="293.216966424,324.878118479 293.216966424,318.678118479 395.282023422,318.678118479 395.282023422,324.878118479" class="Resi-Stroke"/>
<polygon points="293.216966424,312.478118479 395.282023422,312.478118479 395.282023422,318.678118479 293.216966424,318.678118479" class="Resi-Stroke"/>
<polyline points="395.282023422,306.278118479 395.282023422,312.478118479 293.216966424,312.478118479 293.216966424,306.278118479 395.282023422,306.278118479" class="Resi-Stroke"/>
<polyline points="395.282023422,300.078118479 395.282023422,306.278118479 293.216966424,306.278118479 293.216966424,300.078118479 395.282023422,300.078118479" class="Resi-Stroke"/>
<polyline points="395.282023422,300.078118479 293.216966424,300.078118479 293.216966424,293.878118479 395.282023422,293.878118479 395.282023422,300.078118479" class="Resi-Stroke"/>
<polyline points="293.216966424,293.878118479 293.216966424,287.678118479 395.282023422,287.678118479 395.282023422,293.878118479 293.216966424,293.878118479" class="Resi-Stroke"/>
<polygon points="293.216966424,281.478118479 395.282023422,281.478118479 395.282023422,287.678118479 293.216966424,287.678118479" class="Resi-Stroke"/>
<polygon points="395.282023422,275.278118479 395.282023422,281.478118479 293.216966424,281.478118479 293.216966424,275.278118479" class="Resi-Stroke"/>
<polyline points="395.282023422,275.278118479 293.216966424,275.278118479 293.216966424,269.078118479 395.282023422,269.078118479 395.282023422,275.278118479" class="Resi-Stroke"/>
<polygon points="293.216966424,262.878118479 395.282023422,262.878118479 395.282023422,269.078118479 293.216966424,269.078118479" class="Resi-Stroke"/>
<polygon points="293.216966424,262.878118479 293.216966424,256.678118479 395.282023422,256.678118479 395.282023422,262.878118479" class="Resi-Stroke"/>
<polygon points="395.282023422,250.478118479 395.282023422,256.678118479 293.216966424,256.678118479 293.216966424,250.478118479" class="Resi-Stroke"/>
<polygon points="395.282023422,250.478118479 293.216966424,250.478118479 293.216966424,244.278118479 395.282023422,244.278118479" class="Resi-Stroke"/>
<polygon points="395.282023422,244.278118479 293.216966424,244.278118479 293.216966424,238.078118479 395.282023422,238.078118479" class="Resi-Stroke"/>
<polygon points="293.216966424,238.078118479 293.216966424,231.878118479 395.282023422,231.878118479 395.282023422,238.078118479" class="Resi-Stroke"/>
<polyline points="293.216966424,231.878118479 293.216966424,225.678118479 395.282023422,225.678118479 395.282023422,231.878118479 293.216966424,231.878118479" class="Resi-Stroke"/>
<polyline points="293.216966424,219.478118479 395.282023422,219.478118479 395.282023422,225.678118479 293.216966424,225.678118479 293.216966424,219.478118479" class="Resi-Stroke"/>
<polyline points="293.216966424,219.478118479 293.216966424,213.278118479 395.282023422,213.278118479 395.282023422,219.478118479 293.216966424,219.478118479" class="Resi-Stroke"/>
<polygon points="293.216966424,207.078118479 395.282023422,207.078118479 395.282023422,213.278118479 293.216966424,213.278118479" class="Resi-Stroke"/>
<polygon points="293.216966424,207.078118479 293.216966424,200.878118479 395.282023422,200.878118479 395.282023422,207.078118479" class="Resi-Stroke"/>
<polygon points="293.216966424,200.878118479 293.216966424,194.678118479 395.282023422,194.678118479 395.282023422,200.878118479" class="Resi-Stroke"/>
<polygon points="293.216966424,188.478118479 395.282023422,188.478118479 395.282023422,194.678118479 293.216966424,194.678118479" class="Resi-Stroke"/>
<polygon points="293.216966424,188.478118479 293.216966424,182.278118479 395.282023422,182.278118479 395.282023422,188.478118479" class="Resi-Stroke"/>
<polygon points="293.216966424,182.278118479 293.216966424,176.078118479 395.282023422,176.078118479 395.282023422,182.278118479" class="Resi-Stroke"/>
<polygon points="293.216966424,169.878118479 395.282023422,169.878118479 395.282023422,176.078118479 293.216966424,176.078118479" class="Resi-Stroke"/>
<polygon points="293.216966424,169.878118479 293.216966424,163.678118479 395.282023422,163.678118479 395.282023422,169.878118479" class="Resi-Stroke"/>
<polygon points="293.216966424,163.678118479 293.216966424,157.478118479 395.282023422,157.478118479 395.282023422,163.678118479" class="Resi-Stroke"/>
<polygon points="293.216966424,157.478118479 293.216966424,151.278118479 395.282023422,151.278118479 395.282023422,157.478118479" class="Resi-Stroke"/>
<polygon points="293.216966424,151.278118479 293.216966424,145.078118479 395.282023422,145.078118479 395.282023422,151.278118479" class="Resi-Stroke"/>
<polygon points="293.216966424,138.878118479 395.282023422,138.878118479 395.282023422,145.078118479 293.216966424,145.078118479" class="Resi-Stroke"/>
<polygon points="293.216966424,138.878118479 293.216966424,132.678118479 395.282023422,132.678118479 395.282023422,138.878118479" class="Resi-Stroke"/>
<polygon points="293.216966424,132.678118479 293.216966424,120.875047737 395.282023422,120.875047737 395.282023422,132.678118479" class="Resi-Stroke"/>
<polyline points="40.0,534.0 100.0,534.0 100.0,522.0 40.0,522.0 40.0,534.0" class="Resi-Stroke"/>
</svg>