<?xml version="1.0" encoding="utf-8"?>
<!-- Generator: Grasshopper 1.0.0, Redback Plugin. SVG Version: 6.00 Build 0)  -->
<!DOCTYPE svg PUBLIC "-//W3C//DTD SVG 1.1//EN" "http://www.w3.org/Graphics/SVG/1.1/DTD/svg11.dtd">
<svg version="1.1" xmlns="http://www.w3.org/2000/svg" xmlns:xlink="http://www.w3.org/1999/xlink" x="0px" y="0px"
width="841.0mm" height="594.0mm" viewBox="0 0 841.0 594.0" xml:space="preserve">
<style type="text/css">
.Resi-Stroke{
stroke:black;
stroke-width: 0.2mm;
fill:none;
}

.Resi-Fill{
fill: rgb(204,108,120);
}

.Comm-Stroke{
stroke:black;
stroke-width: 0.2mm;
fill:none;
}

.Comm-Fill{
fill: rgb(130,215,255);
}
</style>
<polygon points="621.954201012,104.327287570 621.954201012,92.5242168284 522.025116652,92.5242168284 522.025116652,104.327287570" class="Resi-Fill"/>
<polygon points="621.954201012,104.327287570 522.025116652,104.327287570 522.025116652,110.527287570 621.954201012,110.527287570" class="Resi-Fill"/>
<polygon points="522.025116652,110.527287570 522.025116652,116.727287570 621.954201012,116.727287570 621.954201012,110.527287570" class="Resi-Fill"/>
<polygon points="522.025116652,122.927287570 621.954201012,122.927287570 621.954201012,116.727287570 522.025116652,116.727287570" class="Resi-Fill"/>
<polygon points="522.025116652,122.927287570 522.025116652,129.127287570 621.954201012,129.127287570 621.954201012,122.927287570" class="Resi-Fill"/>
<polyline points="522.025116652,135.327287570 621.954201012,135.327287570 621.954201012,129.127287570 522.025116652,129.127287570 522.025116652,135.327287570" class="Resi-Fill"/>
<polyline points="522.025116652,141.527287570 621.954201012,141.527287570 621.954201012,135.327287570 522.025116652,135.327287570 522.025116652,141.527287570" class="Resi-Fill"/>
<polygon points="522.025116652,147.727287570 621.954201012,147.727287570 621.954201012,141.527287570 522.025116652,141.527287570" class="Resi-Fill"/>
<polygon points="522.025116652,153.927287570 621.954201012,153.927287570 621.954201012,147.727287570 522.025116652,147.727287570" class="Resi-Fill"/>
<polygon points="522.025116652,153.927287570 522.025116652,160.127287570 621.954201012,160.127287570 621.954201012,153.927287570" class="Resi-Fill"/>
<polygon points="522.025116652,166.327287570 621.954201012,166.327287570 621.954201012,160.127287570 522.025116652,160.127287570" class="Resi-Fill"/>
<polygon points="522.025116652,172.527287570 621.954201012,172.527287570 621.954201012,166.327287570 522.025116652,166.327287570" class="Resi-Fill"/>
<polygon points="522.025116652,172.527287570 522.025116652,178.727287570 621.954201012,178.727287570 621.954201012,172.527287570" class="Resi-Fill"/>
<polygon points="522.025116652,184.927287570 621.954201012,184.927287570 621.954201012,178.727287570 522.025116652,178.727287570" class="Resi-Fill"/>
<polygon points="522.025116652,191.127287570 621.954201012,191.127287570 621.954201012,184.927287570 522.025116652,184.927287570" class="Resi-Fill"/>
<polygon points="522.025116652,191.127287570 522.025116652,197.327287570 621.954201012,197.327287570 621.954201012,191.127287570" class="Resi-Fill"/>
<polyline points="522.025116652,203.527287570 621.954201012,203.527287570 621.954201012,197.327287570 522.025116652,197.327287570 522.025116652,203.527287570" class="Resi-Fill"/>
<polyline points="522.025116652,203.527287570 522.025116652,209.727287570 621.954201012,209.727287570 621.954201012,203.527287570 522.025116652,203.527287570" class="Resi-Fill"/>
<polygon points="621.954201012,209.727287570 522.025116652,209.727287570 522.025116652,215.927287570 621.954201012,215.927287570" class="Resi-Fill"/>
<polygon points="522.025116652,222.127287570 621.954201012,222.127287570 621.954201012,215.927287570 522.025116652,215.927287570" class="Resi-Fill"/>
<polygon points="522.025116652,228.327287570 621.954201012,228.327287570 621.954201012,222.127287570 522.025116652,222.127287570" class="Resi-Fill"/>
<polygon points="522.025116652,234.527287570 621.954201012,234.527287570 621.954201012,228.327287570 522.025116652,228.327287570" class="Resi-Fill"/>
<polyline points="522.025116652,234.527287570 522.025116652,240.727287570 621.954201012,240.727287570 621.954201012,234.527287570 522.025116652,234.527287570" class="Resi-Fill"/>
<polygon points="522.025116652,246.927287570 621.954201012,246.927287570 621.954201012,240.727287570 522.025116652,240.727287570" class="Resi-Fill"/>
<polygon points="522.025116652,246.927287570 522.025116652,253.127287570 621.954201012,253.127287570 621.954201012,246.927287570" class="Resi-Fill"/>
<polygon points="621.954201012,259.327287570 621.954201012,253.127287570 522.025116652,253.127287570 522.025116652,259.327287570" class="Resi-Fill"/>
<polygon points="522.025116652,265.527287570 621.954201012,265.527287570 621.954201012,259.327287570 522.025116652,259.327287570" class="Resi-Fill"/>
<polygon points="522.025116652,265.527287570 522.025116652,271.727287570 621.954201012,271.727287570 621.954201012,265.527287570" class="Resi-Fill"/>
<polyline points="522.025116652,277.927287570 621.954201012,277.927287570 621.954201012,271.727287570 522.025116652,271.727287570 522.025116652,277.927287570" class="Resi-Fill"/>
<polyline points="522.025116652,284.127287570 621.954201012,284.127287570 621.954201012,277.927287570 522.025116652,277.927287570 522.025116652,284.127287570" class="Resi-Fill"/>
<polygon points="522.025116652,284.127287570 522.025116652,290.327287570 621.954201012,290.327287570 621.954201012,284.127287570" class="Resi-Fill"/>
<polygon points="522.025116652,296.527287570 621.954201012,296.527287570 621.954201012,290.327287570 522.025116652,290.327287570" class="Resi-Fill"/>
<polygon points="522.025116652,302.727287570 621.954201012,302.727287570 621.954201012,296.527287570 522.025116652,296.527287570" class="Resi-Fill"/>
<polygon points="522.025116652,308.927287570 621.954201012,308.927287570 621.954201012,302.727287570 522.025116652,302.727287570" class="Resi-Fill"/>
<polygon points="522.025116652,315.127287570 621.954201012,315.127287570 621.954201012,308.927287570 522.025116652,308.927287570" class="Resi-Fill"/>
<polygon points="522.025116652,315.127287570 522.025116652,321.327287570 621.954201012,321.327287570 621.954201012,315.127287570" class="Resi-Fill"/>
<polygon points="522.025116652,327.527287570 621.954201012,327.527287570 621.954201012,321.327287570 522.025116652,321.327287570" class="Resi-Fill"/>
<polygon points="522.025116652,333.727287570 621.954201012,333.727287570 621.954201012,327.527287570 522.025116652,327.527287570" class="Resi-Fill"/>
<polygon points="522.025116652,333.727287570 522.025116652,339.927287570 621.954201012,339.927287570 621.954201012,333.727287570" class="Resi-Fill"/>
<polygon points="522.025116652,346.127287570 621.954201012,346.127287570 621.954201012,339.927287570 522.025116652,339.927287570" class="Resi-Fill"/>
<polygon points="522.025116652,352.327287570 522.025116652,346.127287570 621.954201012,346.127287570 621.954201012,352.327287570" class="Resi-Fill"/>
<polygon points="149.924355117,132.678118479 149.924355117,120.875047737 348.493795261,120.875047737 348.493795261,132.678118479" class="Resi-Fill"/>
<polygon points="149.924355117,138.878118479 149.924355117,132.678118479 348.493795261,132.678118479 348.493795261,138.878118479" class="Resi-Fill"/>
<polygon points="149.924355117,138.878118479 348.493795261,138.878118479 348.493795261,145.078118479 149.924355117,145.078118479" class="Resi-Fill"/>
<polygon points="149.924355117,151.278118479 149.924355117,145.078118479 348.493795261,145.078118479 348.493795261,151.278118479" class="Resi-Fill"/>
<polyline points="348.493795261,157.478118479 149.924355117,157.478118479 149.924355117,151.278118479 348.493795261,151.278118479 348.493795261,157.478118479" class="Resi-Fill"/>
<polyline points="348.493795261,157.478118479 348.493795261,163.678118479 149.924355117,163.678118479 149.924355117,157.478118479 348.493795261,157.478118479" class="Resi-Fill"/>
<polygon points="149.924355117,169.878118479 149.924355117,163.678118479 348.493795261,163.678118479 348.493795261,169.878118479" class="Resi-Fill"/>
<polygon points="149.924355117,169.878118479 348.493795261,169.878118479 348.493795261,176.078118479 149.924355117,176.078118479" class="Resi-Fill"/>
<polygon points="149.924355117,176.078118479 348.493795261,176.078118479 348.493795261,182.278118479 149.924355117,182.278118479" class="Resi-Fill"/>
<polyline points="149.924355117,188.478118479 149.924355117,182.278118479 348.493795261,182.278118479 348.493795261,188.478118479 149.924355117,188.478118479" class="Resi-Fill"/>
<polygon points="149.924355117,188.478118479 348.493795261,188.478118479 348.493795261,194.678118479 149.924355117,194.678118479" class="Resi-Fill"/>
<polyline points="149.924355117,200.878118479 149.924355117,194.678118479 348.493795261,194.678118479 348.493795261,200.878118479 149.924355117,200.878118479" class="Resi-Fill"/>
<polygon points="149.924355117,200.878118479 348.493795261,200.878118479 348.493795261,207.078118479 149.924355117,207.078118479" class="Resi-Fill"/>
<polygon points="149.924355117,213.278118479 149.924355117,207.078118479 348.493795261,207.078118479 348.493795261,213.278118479" class="Resi-Fill"/>
<polygon points="149.924355117,219.478118479 149.924355117,213.278118479 348.493795261,213.278118479 348.493795261,219.478118479" class="Resi-Fill"/>
<polyline points="149.924355117,219.478118479 348.493795261,219.478118479 348.493795261,225.678118479 149.924355117,225.678118479 149.924355117,219.478118479" class="Resi-Fill"/>
<polygon points="149.924355117,231.878118479 149.924355117,225.678118479 348.493795261,225.678118479 348.493795261,231.878118479" class="Resi-Fill"/>
<polygon points="149.924355117,238.078118479 149.924355117,231.878118479 348.493795261,231.878118479 348.493795261,238.078118479" class="Resi-Fill"/>
<polygon points="149.924355117,244.278118479 149.924355117,238.078118479 348.493795261,238.078118479 348.493795261,244.278118479" class="Resi-Fill"/>
<polygon points="149.924355117,250.478118479 149.924355117,244.278118479 348.493795261,244.278118479 348.493795261,250.478118479" class="Resi-Fill"/>
<polygon points="149.924355117,250.478118479 348.493795261,250.478118479 348.493795261,256.678118479 149.924355117,256.678118479" class="Resi-Fill"/>
<polygon points="348.493795261,262.878118479 149.924355117,262.878118479 149.924355117,256.678118479 348.493795261,256.678118479" class="Resi-Fill"/>
<polygon points="348.493795261,262.878118479 348.493795261,269.078118479 149.924355117,269.078118479 149.924355117,262.878118479" class="Resi-Fill"/>
<polyline points="348.493795261,275.278118479 149.924355117,275.278118479 149.924355117,269.078118479 348.493795261,269.078118479 348.493795261,275.278118479" class="Resi-Fill"/>
<polygon points="149.924355117,281.478118479 149.924355117,275.278118479 348.493795261,275.278118479 348.493795261,281.478118479" class="Resi-Fill"/>
<polygon points="149.924355117,281.478118479 348.493795261,281.478118479 348.493795261,287.678118479 149.924355117,287.678118479" class="Resi-Fill"/>
<polygon points="149.924355117,293.878118479 149.924355117,287.678118479 348.493795261,287.678118479 348.493795261,293.878118479" class="Resi-Fill"/>
<polygon points="149.924355117,300.078118479 149.924355117,293.878118479 348.493795261,293.878118479 348.493795261,300.078118479" class="Resi-Fill"/>
<polygon points="149.924355117,300.078118479 348.493795261,300.078118479 348.493795261,306.278118479 149.924355117,306.278118479" class="Resi-Fill"/>
<polygon points="149.924355117,312.478118479 149.924355117,306.278118479 348.493795261,306.278118479 348.493795261,312.478118479" class="Resi-Fill"/>
<polygon points="149.924355117,312.478118479 348.493795261,312.478118479 348.493795261,318.678118479 149.924355117,318.678118479" class="Resi-Fill"/>
<polygon points="149.924355117,318.678118479 348.493795261,318.678118479 348.493795261,324.878118479 149.924355117,324.878118479" class="Resi-Fill"/>
<polygon points="149.924355117,324.878118479 348.493795261,324.878118479 348.493795261,331.078118479 149.924355117,331.078118479" class="Resi-Fill"/>
<polyline points="149.924355117,337.278118479 149.924355117,331.078118479 348.493795261,331.078118479 348.493795261,337.278118479 149.924355117,337.278118479" class="Resi-Fill"/>
<polygon points="348.493795261,343.478118479 149.924355117,343.478118479 149.924355117,337.278118479 348.493795261,337.278118479" class="Resi-Fill"/>
<polygon points="149.924355117,349.678118479 149.924355117,343.478118479 348.493795261,343.478118479 348.493795261,349.678118479" class="Resi-Fill"/>
<polygon points="149.924355117,355.878118479 149.924355117,349.678118479 348.493795261,349.678118479 348.493795261,355.878118479" class="Resi-Fill"/>
<polygon points="149.924355117,355.878118479 348.493795261,355.878118479 348.493795261,362.078118479 149.924355117,362.078118479" class="Resi-Fill"/>
<polyline points="348.493795261,368.278118479 149.924355117,368.278118479 149.924355117,362.078118479 348.493795261,362.078118479 348.493795261,368.278118479" class="Resi-Fill"/>
<polygon points="149.924355117,374.478118479 149.924355117,368.278118479 348.493795261,368.278118479 348.493795261,374.478118479" class="Resi-Fill"/>
<polygon points="149.924355117,380.678118479 149.924355117,374.478118479 348.493795261,374.478118479 348.493795261,380.678118479" class="Resi-Fill"/>
<polyline points="40.0,534.0 100.0,534.0 100.0,522.0 40.0,522.0 40.0,534.0" class="Resi-Fill"/>
</svg>