<?xml version="1.0" encoding="utf-8"?>
<!-- Generator: Grasshopper 1.0.0, Redback Plugin. SVG Version: 6.00 Build 0)  -->
<!DOCTYPE svg PUBLIC "-//W3C//DTD SVG 1.1//EN" "http://www.w3.org/Graphics/SVG/1.1/DTD/svg11.dtd">
<svg version="1.1" xmlns="http://www.w3.org/2000/svg" xmlns:xlink="http://www.w3.org/1999/xlink" x="0px" y="0px"
width="841.0mm" height="594.0mm" viewBox="0 0 841.0 594.0" xml:space="preserve">
<style type="text/css">
.Resi-Stroke{
stroke:black;
stroke-width: 0.1mm;
fill:none;
}

.Resi-Fill{
fill: rgb(204,108,120);
}

.Comm-Stroke{
stroke:black;
stroke-width: 0.1mm;
fill:none;
}

.Comm-Fill{
fill: rgb(130,215,255);
}
</style>
<polygon points="628.781752020,-35.1872172385 726.050247715,-35.1872172385 725.861492922,-23.3841464966 628.709964076,-23.3841464966" class="Resi-Fill"/>
<polygon points="725.752147651,-17.1841464966 628.674700981,-17.1841464966 628.709964076,-23.3841464966 725.861492922,-23.3841464966" class="Resi-Fill"/>
<polyline points="725.635543900,-10.9841464966 628.641120824,-10.9841464966 628.674700981,-17.1841464966 725.752147651,-17.1841464966 725.635543900,-10.9841464966" class="Resi-Fill"/>
<polyline points="725.511502752,-4.78414649664 628.609222131,-4.78414649664 628.641120824,-10.9841464966 725.635543900,-10.9841464966 725.511502752,-4.78414649664" class="Resi-Fill"/>
<polyline points="725.379848253,1.41585350336 628.579003428,1.41585350336 628.609222131,-4.78414649664 725.511502752,-4.78414649664 725.379848253,1.41585350336" class="Resi-Fill"/>
<polyline points="725.240407932,7.61585350336 628.550463242,7.61585350336 628.579003428,1.41585350336 725.379848253,1.41585350336 725.240407932,7.61585350336" class="Resi-Fill"/>
<polygon points="725.093013330,13.8158535034 628.523600104,13.8158535034 628.550463242,7.61585350336 725.240407932,7.61585350336" class="Resi-Fill"/>
<polygon points="724.937501173,20.0158535034 628.498412544,20.0158535034 628.523600104,13.8158535034 725.093013330,13.8158535034" class="Resi-Fill"/>
<polyline points="724.773787269,26.2158535034 628.474899095,26.2158535034 628.498412544,20.0158535034 724.937501173,20.0158535034 724.773787269,26.2158535034" class="Resi-Fill"/>
<polyline points="724.601732171,32.4158535034 628.453058291,32.4158535034 628.474899095,26.2158535034 724.773787269,26.2158535034 724.601732171,32.4158535034" class="Resi-Fill"/>
<polyline points="724.421199004,38.6158535034 628.432888666,38.6158535034 628.453058291,32.4158535034 724.601732171,32.4158535034 724.421199004,38.6158535034" class="Resi-Fill"/>
<polyline points="724.232053937,44.8158535034 628.414388759,44.8158535034 628.432888666,38.6158535034 724.421199004,38.6158535034 724.232053937,44.8158535034" class="Resi-Fill"/>
<polygon points="724.034166676,51.0158535034 628.397557106,51.0158535034 628.414388759,44.8158535034 724.232053937,44.8158535034" class="Resi-Fill"/>
<polygon points="723.827410988,57.2158535034 628.382392248,57.2158535034 628.397557106,51.0158535034 724.034166676,51.0158535034" class="Resi-Fill"/>
<polyline points="723.611665243,63.4158535034 628.368892726,63.4158535034 628.382392248,57.2158535034 723.827410988,57.2158535034 723.611665243,63.4158535034" class="Resi-Fill"/>
<polyline points="723.386812983,69.6158535034 628.357057083,69.6158535034 628.368892726,63.4158535034 723.611665243,63.4158535034 723.386812983,69.6158535034" class="Resi-Fill"/>
<polyline points="723.152743510,75.8158535034 628.346883862,75.8158535034 628.357057083,69.6158535034 723.386812983,69.6158535034 723.152743510,75.8158535034" class="Resi-Fill"/>
<polyline points="722.909352491,82.0158535034 628.338371608,82.0158535034 628.346883862,75.8158535034 723.152743510,75.8158535034 722.909352491,82.0158535034" class="Resi-Fill"/>
<polygon points="722.656542586,88.2158535034 628.331518869,88.2158535034 628.338371608,82.0158535034 722.909352491,82.0158535034" class="Resi-Fill"/>
<polygon points="722.394224084,94.4158535034 628.326324193,94.4158535034 628.331518869,88.2158535034 722.656542586,88.2158535034" class="Resi-Fill"/>
<polyline points="722.121639501,100.615853503 628.322786130,100.615853503 628.326324193,94.4158535034 722.394224084,94.4158535034 722.121639501,100.615853503" class="Resi-Fill"/>
<polyline points="721.839346788,106.815853503 628.320903230,106.815853503 628.322786130,100.615853503 722.121639501,100.615853503 721.839346788,106.815853503" class="Resi-Fill"/>
<polyline points="721.547349024,113.015853503 628.320674046,113.015853503 628.320903230,106.815853503 721.839346788,106.815853503 721.547349024,113.015853503" class="Resi-Fill"/>
<polyline points="721.245615052,119.215853503 628.322097133,119.215853503 628.320674046,113.015853503 721.547349024,113.015853503 721.245615052,119.215853503" class="Resi-Fill"/>
<polygon points="720.934124147,125.415853503 628.325171045,125.415853503 628.322097133,119.215853503 721.245615052,119.215853503" class="Resi-Fill"/>
<polygon points="720.612866002,131.615853503 628.329894340,131.615853503 628.325171045,125.415853503 720.934124147,125.415853503" class="Resi-Fill"/>
<polyline points="720.281840672,137.815853503 628.336265574,137.815853503 628.329894340,131.615853503 720.612866002,131.615853503 720.281840672,137.815853503" class="Resi-Fill"/>
<polyline points="719.941058467,144.015853503 628.344283309,144.015853503 628.336265574,137.815853503 720.281840672,137.815853503 719.941058467,144.015853503" class="Resi-Fill"/>
<polyline points="719.590539801,150.215853503 628.353946105,150.215853503 628.344283309,144.015853503 719.941058467,144.015853503 719.590539801,150.215853503" class="Resi-Fill"/>
<polygon points="719.230314995,156.415853503 628.365252524,156.415853503 628.353946105,150.215853503 719.590539801,150.215853503" class="Resi-Fill"/>
<polygon points="718.860424049,162.615853503 628.378201130,162.615853503 628.365252524,156.415853503 719.230314995,156.415853503" class="Resi-Fill"/>
<polygon points="718.480916360,168.815853503 628.392790488,168.815853503 628.378201130,162.615853503 718.860424049,162.615853503" class="Resi-Fill"/>
<polyline points="718.091850422,175.015853503 628.409019164,175.015853503 628.392790488,168.815853503 718.480916360,168.815853503 718.091850422,175.015853503" class="Resi-Fill"/>
<polyline points="717.693293478,181.215853503 628.426885728,181.215853503 628.409019164,175.015853503 718.091850422,175.015853503 717.693293478,181.215853503" class="Resi-Fill"/>
<polyline points="717.285321155,187.415853503 628.446388747,187.415853503 628.426885728,181.215853503 717.693293478,181.215853503 717.285321155,187.415853503" class="Resi-Fill"/>
<polygon points="716.868017071,193.615853503 628.467526792,193.615853503 628.446388747,187.415853503 717.285321155,187.415853503" class="Resi-Fill"/>
<polygon points="716.441472417,199.815853503 628.490298436,199.815853503 628.467526792,193.615853503 716.868017071,193.615853503" class="Resi-Fill"/>
<polyline points="716.005785527,206.015853503 628.514702251,206.015853503 628.490298436,199.815853503 716.441472417,199.815853503 716.005785527,206.015853503" class="Resi-Fill"/>
<polyline points="715.561061431,212.215853503 628.540736814,212.215853503 628.514702251,206.015853503 716.005785527,206.015853503 715.561061431,212.215853503" class="Resi-Fill"/>
<polyline points="715.107411397,218.415853503 628.568400699,218.415853503 628.540736814,212.215853503 715.561061431,212.215853503 715.107411397,218.415853503" class="Resi-Fill"/>
<polygon points="628.597692484,224.615853503 628.568400699,218.415853503 715.107411397,218.415853503 714.644952472,224.615853503" class="Resi-Fill"/>
<polyline points="872.272146877,196.265022594 872.272146877,190.065022594 829.708210679,190.065022594 829.708210679,196.265022594 872.272146877,196.265022594" class="Resi-Fill"/>
<polyline points="872.272146877,190.065022594 872.272146877,183.865022594 829.708210679,183.865022594 829.708210679,190.065022594 872.272146877,190.065022594" class="Resi-Fill"/>
<polyline points="872.272146877,183.865022594 872.272146877,177.665022594 829.708210679,177.665022594 829.708210679,183.865022594 872.272146877,183.865022594" class="Resi-Fill"/>
<polygon points="872.272146877,177.665022594 872.272146877,171.465022594 829.708210679,171.465022594 829.708210679,177.665022594" class="Resi-Fill"/>
<polyline points="872.272146877,171.465022594 872.272146877,165.265022594 829.708210679,165.265022594 829.708210679,171.465022594 872.272146877,171.465022594" class="Resi-Fill"/>
<polygon points="872.272146877,165.265022594 872.272146877,159.065022594 829.708210679,159.065022594 829.708210679,165.265022594" class="Resi-Fill"/>
<polyline points="872.272146877,159.065022594 872.272146877,152.865022594 829.708210679,152.865022594 829.708210679,159.065022594 872.272146877,159.065022594" class="Resi-Fill"/>
<polyline points="872.272146877,152.865022594 872.272146877,146.665022594 829.708210679,146.665022594 829.708210679,152.865022594 872.272146877,152.865022594" class="Resi-Fill"/>
<polyline points="872.272146877,146.665022594 872.272146877,140.465022594 829.708210679,140.465022594 829.708210679,146.665022594 872.272146877,146.665022594" class="Resi-Fill"/>
<polygon points="872.272146877,140.465022594 872.272146877,134.265022594 829.708210679,134.265022594 829.708210679,140.465022594" class="Resi-Fill"/>
<polyline points="872.272146877,134.265022594 872.272146877,128.065022594 829.708210679,128.065022594 829.708210679,134.265022594 872.272146877,134.265022594" class="Resi-Fill"/>
<polyline points="872.272146877,128.065022594 872.272146877,121.865022594 829.708210679,121.865022594 829.708210679,128.065022594 872.272146877,128.065022594" class="Resi-Fill"/>
<polygon points="872.272146877,121.865022594 872.272146877,115.665022594 829.708210679,115.665022594 829.708210679,121.865022594" class="Resi-Fill"/>
<polyline points="872.272146877,115.665022594 872.272146877,109.465022594 829.708210679,109.465022594 829.708210679,115.665022594 872.272146877,115.665022594" class="Resi-Fill"/>
<polyline points="872.272146877,109.465022594 872.272146877,103.265022594 829.708210679,103.265022594 829.708210679,109.465022594 872.272146877,109.465022594" class="Resi-Fill"/>
<polyline points="872.272146877,103.265022594 872.272146877,97.0650225943 829.708210679,97.0650225943 829.708210679,103.265022594 872.272146877,103.265022594" class="Resi-Fill"/>
<polygon points="872.272146877,97.0650225943 872.272146877,90.8650225943 829.708210679,90.8650225943 829.708210679,97.0650225943" class="Resi-Fill"/>
<polyline points="872.272146877,90.8650225943 872.272146877,84.6650225943 829.708210679,84.6650225943 829.708210679,90.8650225943 872.272146877,90.8650225943" class="Resi-Fill"/>
<polygon points="872.272146877,84.6650225943 872.272146877,78.4650225943 829.708210679,78.4650225943 829.708210679,84.6650225943" class="Resi-Fill"/>
<polyline points="872.272146877,78.4650225943 872.272146877,72.2650225943 829.708210679,72.2650225943 829.708210679,78.4650225943 872.272146877,78.4650225943" class="Resi-Fill"/>
<polyline points="872.272146877,72.2650225943 872.272146877,66.0650225943 829.708210679,66.0650225943 829.708210679,72.2650225943 872.272146877,72.2650225943" class="Resi-Fill"/>
<polyline points="872.272146877,66.0650225943 872.272146877,59.8650225943 829.708210679,59.8650225943 829.708210679,66.0650225943 872.272146877,66.0650225943" class="Resi-Fill"/>
<polygon points="872.272146877,59.8650225943 872.272146877,53.6650225943 829.708210679,53.6650225943 829.708210679,59.8650225943" class="Resi-Fill"/>
<polyline points="872.272146877,53.6650225943 872.272146877,47.4650225943 829.708210679,47.4650225943 829.708210679,53.6650225943 872.272146877,53.6650225943" class="Resi-Fill"/>
<polyline points="872.272146877,47.4650225943 872.272146877,41.2650225943 829.708210679,41.2650225943 829.708210679,47.4650225943 872.272146877,47.4650225943" class="Resi-Fill"/>
<polygon points="872.272146877,41.2650225943 872.272146877,35.0650225943 829.708210679,35.0650225943 829.708210679,41.2650225943" class="Resi-Fill"/>
<polyline points="872.272146877,35.0650225943 872.272146877,28.8650225943 829.708210679,28.8650225943 829.708210679,35.0650225943 872.272146877,35.0650225943" class="Resi-Fill"/>
<polyline points="872.272146877,28.8650225943 872.272146877,22.6650225943 829.708210679,22.6650225943 829.708210679,28.8650225943 872.272146877,28.8650225943" class="Resi-Fill"/>
<polyline points="872.272146877,22.6650225943 872.272146877,16.4650225943 829.708210679,16.4650225943 829.708210679,22.6650225943 872.272146877,22.6650225943" class="Resi-Fill"/>
<polygon points="872.272146877,16.4650225943 872.272146877,10.2650225943 829.708210679,10.2650225943 829.708210679,16.4650225943" class="Resi-Fill"/>
<polyline points="872.272146877,10.2650225943 872.272146877,4.06502259432 829.708210679,4.06502259432 829.708210679,10.2650225943 872.272146877,10.2650225943" class="Resi-Fill"/>
<polygon points="872.272146877,4.06502259432 872.272146877,-2.13497740568 829.708210679,-2.13497740568 829.708210679,4.06502259432" class="Resi-Fill"/>
<polyline points="872.272146877,-2.13497740568 872.272146877,-8.33497740568 829.708210679,-8.33497740568 829.708210679,-2.13497740568 872.272146877,-2.13497740568" class="Resi-Fill"/>
<polyline points="872.272146877,-8.33497740568 872.272146877,-14.5349774057 829.708210679,-14.5349774057 829.708210679,-8.33497740568 872.272146877,-8.33497740568" class="Resi-Fill"/>
<polyline points="872.272146877,-14.5349774057 872.272146877,-20.7349774057 829.708210679,-20.7349774057 829.708210679,-14.5349774057 872.272146877,-14.5349774057" class="Resi-Fill"/>
<polygon points="872.272146877,-20.7349774057 872.272146877,-26.9349774057 829.708210679,-26.9349774057 829.708210679,-20.7349774057" class="Resi-Fill"/>
<polyline points="872.272146877,-26.9349774057 872.272146877,-33.1349774057 829.708210679,-33.1349774057 829.708210679,-26.9349774057 872.272146877,-26.9349774057" class="Resi-Fill"/>
<polygon points="872.272146877,-33.1349774057 872.272146877,-39.3349774057 829.708210679,-39.3349774057 829.708210679,-33.1349774057" class="Resi-Fill"/>
<polyline points="872.272146877,-39.3349774057 872.272146877,-45.5349774057 829.708210679,-45.5349774057 829.708210679,-39.3349774057 872.272146877,-39.3349774057" class="Resi-Fill"/>
<polyline points="872.272146877,-45.5349774057 872.272146877,-51.7349774057 829.708210679,-51.7349774057 829.708210679,-45.5349774057 872.272146877,-45.5349774057" class="Resi-Fill"/>
<polyline points="829.708210679,-63.5380481475 829.708210679,-51.7349774057 872.272146877,-51.7349774057 872.272146877,-63.5380481475 829.708210679,-63.5380481475" class="Resi-Fill"/>
<polygon points="40.0,554.0 140.0,554.0 140.0,532.0 40.0,532.0" class="Resi-Fill"/>
</svg>