<?xml version="1.0" encoding="utf-8"?>
<!-- Generator: Grasshopper 1.0.0, Redback Plugin. SVG Version: 6.00 Build 0)  -->
<!DOCTYPE svg PUBLIC "-//W3C//DTD SVG 1.1//EN" "http://www.w3.org/Graphics/SVG/1.1/DTD/svg11.dtd">
<svg version="1.1" xmlns="http://www.w3.org/2000/svg" xmlns:xlink="http://www.w3.org/1999/xlink" x="0px" y="0px"
width="841.0mm" height="594.0mm" viewBox="0 0 841.0 594.0" xml:space="preserve">
<style type="text/css">
.Resi{
    fill: crimson;
}




.Comm{
stroke: red;
stroke-width: 0.02mm;
fill: rgb(0,0,0)
}
</style>
<polyline points="477.327395445,302.266461636 251.685940531,302.266461636 251.685940531,290.266461636 477.327395445,290.266461636 477.327395445,302.266461636" class="Resi"/>
<polyline points="477.327395445,314.266461636 251.685940531,314.266461636 251.685940531,302.266461636 477.327395445,302.266461636 477.327395445,314.266461636" class="Resi"/>
<polyline points="477.327395445,326.266461636 251.685940531,326.266461636 251.685940531,314.266461636 477.327395445,314.266461636 477.327395445,326.266461636" class="Resi"/>
<polyline points="477.327395445,338.266461636 251.685940531,338.266461636 251.685940531,326.266461636 477.327395445,326.266461636 477.327395445,338.266461636" class="Resi"/>
<polyline points="477.327395445,350.266461636 251.685940531,350.266461636 251.685940531,338.266461636 477.327395445,338.266461636 477.327395445,350.266461636" class="Resi"/>
<polyline points="477.327395445,362.266461636 251.685940531,362.266461636 251.685940531,350.266461636 477.327395445,350.266461636 477.327395445,362.266461636" class="Resi"/>
<polyline points="477.327395445,374.266461636 251.685940531,374.266461636 251.685940531,362.266461636 477.327395445,362.266461636 477.327395445,374.266461636" class="Resi"/>
<polyline points="477.327395445,386.266461636 251.685940531,386.266461636 251.685940531,374.266461636 477.327395445,374.266461636 477.327395445,386.266461636" class="Resi"/>
<polyline points="477.327395445,398.266461636 251.685940531,398.266461636 251.685940531,386.266461636 477.327395445,386.266461636 477.327395445,398.266461636" class="Resi"/>
<polyline points="337.009631256,169.115882678 251.685940531,169.115882678 251.685940531,157.115882678 337.009631256,157.115882678 337.009631256,169.115882678" class="Resi"/>
<polyline points="337.009631256,181.115882678 251.685940531,181.115882678 251.685940531,169.115882678 337.009631256,169.115882678 337.009631256,181.115882678" class="Resi"/>
<polyline points="337.009631256,193.115882678 251.685940531,193.115882678 251.685940531,181.115882678 337.009631256,181.115882678 337.009631256,193.115882678" class="Resi"/>
<polyline points="337.009631256,205.115882678 251.685940531,205.115882678 251.685940531,193.115882678 337.009631256,193.115882678 337.009631256,205.115882678" class="Resi"/>
<polyline points="337.009631256,217.115882678 251.685940531,217.115882678 251.685940531,205.115882678 337.009631256,205.115882678 337.009631256,217.115882678" class="Resi"/>
<polyline points="337.009631256,229.115882678 251.685940531,229.115882678 251.685940531,217.115882678 337.009631256,217.115882678 337.009631256,229.115882678" class="Resi"/>
<polyline points="337.009631256,241.115882678 251.685940531,241.115882678 251.685940531,229.115882678 337.009631256,229.115882678 337.009631256,241.115882678" class="Resi"/>
<polyline points="337.009631256,253.115882678 251.685940531,253.115882678 251.685940531,241.115882678 337.009631256,241.115882678 337.009631256,253.115882678" class="Resi"/>
<polyline points="337.009631256,265.115882678 251.685940531,265.115882678 251.685940531,253.115882678 337.009631256,253.115882678 337.009631256,265.115882678" class="Resi"/>
<polyline points="337.009631256,277.115882678 251.685940531,277.115882678 251.685940531,265.115882678 337.009631256,265.115882678 337.009631256,277.115882678" class="Resi"/>
<polyline points="337.009631256,289.115882678 251.685940531,289.115882678 251.685940531,277.115882678 337.009631256,277.115882678 337.009631256,289.115882678" class="Resi"/>
</svg>