<?xml version="1.0" encoding="utf-8"?>
<!-- Generator: Grasshopper 1.0.0, Redback Plugin. SVG Version: 6.00 Build 0)  -->
<!DOCTYPE svg PUBLIC "-//W3C//DTD SVG 1.1//EN" "http://www.w3.org/Graphics/SVG/1.1/DTD/svg11.dtd">
<svg version="1.1" xmlns="http://www.w3.org/2000/svg" xmlns:xlink="http://www.w3.org/1999/xlink" x="0px" y="0px"
width="841.0mm" height="594.0mm" viewBox="0 0 841.0 594.0" xml:space="preserve">
<style type="text/css">
.Resi-Stroke{
stroke:black;
stroke-width: 0.2mm;
fill:none;
}

.Resi-Fill{
fill: rgb(204,108,120);
}

.Comm-Stroke{
stroke:black;
stroke-width: 0.2mm;
fill:none;
}

.Comm-Fill{
fill: rgb(130,215,255);
}
</style>
<polygon points="478.333014746,362.678491613 666.152268861,362.678491613 666.152268861,352.327287570 621.954201012,352.327287570 478.333014746,352.327287570" class="Comm-Fill"/>
<polygon points="478.333014746,362.678491613 478.333014746,370.678491613 666.152268861,370.678491613 666.152268861,362.678491613" class="Comm-Fill"/>
<polygon points="478.333014746,378.678491613 666.152268861,378.678491613 666.152268861,370.678491613 478.333014746,370.678491613" class="Comm-Fill"/>
<polygon points="478.333014746,378.678491613 478.333014746,389.029695657 666.152268861,389.029695657 666.152268861,378.678491613" class="Comm-Fill"/>
<polygon points="478.333014746,389.029695657 478.333014746,397.029695657 666.152268861,397.029695657 666.152268861,389.029695657" class="Comm-Fill"/>
<polyline points="478.333014746,397.029695657 478.333014746,405.029695657 666.152268861,405.029695657 666.152268861,397.029695657 478.333014746,397.029695657" class="Comm-Fill"/>
<polygon points="137.312632307,389.029695657 137.312632307,380.678118479 149.924355117,380.678118479 444.766233551,380.678118479 444.766233551,389.029695657" class="Comm-Fill"/>
<polygon points="137.312632307,389.029695657 444.766233551,389.029695657 444.766233551,397.029695657 137.312632307,397.029695657" class="Comm-Fill"/>
<polygon points="444.766233551,397.029695657 444.766233551,405.029695657 137.312632307,405.029695657 137.312632307,397.029695657" class="Comm-Fill"/>
<polyline points="40.0,554.0 100.0,554.0 100.0,542.0 40.0,542.0 40.0,554.0" class="Comm-Fill"/>
</svg>